:FULLY-SPECIFIED
:FORCE-ALL-JOINTS-BE-3DOF
:DEGREES
2752
root -5.559 13.9753 -28.4071 162 -65.4881 -161.137
lfemur -59.6177 42.9998 -6.60274
ltibia 67.8989 0 0
lfoot -2.43896 -1.56525 0
ltoes -31.5748 0 0
rfemur -30.8106 -18.7141 21.5963
rtibia 81.866 0 0
rfoot -35.2584 -24.75 0
rtoes -13.9333 0 0
lowerback 15.6667 5.79914 0.491115
upperback -4.01752 8.07856 1.4492
thorax -13.4247 3.78607 -0.844322
lowerneck -2.49027 9.60068 2.10698
upperneck 7.69873 12.5515 1.93281
head 2.89222 6.33604 0.677191
lclavicle -6.93634e-14 -1.82882e-14 0
lhumerus 3.65819 10.5334 84.1427
lradius 94.6518 0 0
lwrist -18.716 0 0
lhand -39.7287 28.035 0
lfingers 7.12502 0 0
lthumb -12.7062 57.629 0
rclavicle -6.93634e-14 -1.82882e-14 0
rhumerus -57.8841 50.9998 -110.268
rradius 114.084 0 0
rwrist -84.7016 0 0
rhand 4.82202 -26.895 0
rfingers 7.12502 0 0
rthumb 30.2002 -54.446 0
2753
root -5.56876 13.9657 -28.4145 162.033 -65.4876 -161.169
lfemur -59.6597 43.0363 -6.60101
ltibia 67.9921 -0 0
lfoot -2.47974 -1.5864 0.000259552
ltoes -31.6138 0 0
rfemur -30.8149 -18.7206 21.5799
rtibia 81.9385 -0 0
rfoot -35.3233 -24.7683 0.000357562
rtoes -13.9351 0 0
lowerback 15.6517 5.80051 0.481108
upperback -4.02754 8.07852 1.44952
thorax -13.4289 3.78691 -0.837538
lowerneck -2.48926 9.60195 2.10721
upperneck 7.70783 12.5531 1.93164
head 2.89525 6.33683 0.677169
lclavicle -6.93634e-14 -1.82882e-14 0
lhumerus 3.64533 10.5586 84.1286
lradius 94.6599 -0 0
lwrist -18.7231 0 0
lhand -39.7276 28.032 -9.75731e-07
lfingers 7.12502 -0 0
lthumb -12.7052 57.626 -9.22193e-07
rclavicle -6.93634e-14 -1.82882e-14 0
rhumerus -57.8955 50.9947 -110.278
rradius 114.082 -0 0
rwrist -84.6932 0 0
rhand 4.83591 -26.8849 4.20403e-05
rfingers 7.12502 -0 0
rthumb 30.2134 -54.4335 4.98658e-05
2754
root -5.57843 13.9557 -28.4219 162.076 -65.4869 -161.21
lfemur -59.7138 43.0832 -6.59883
ltibia 68.1121 -0 0
lfoot -2.53224 -1.61362 0.000571524
ltoes -31.6641 0 0
rfemur -30.8203 -18.729 21.5589
rtibia 82.0318 -0 0
rfoot -35.4067 -24.7919 0.000787341
rtoes -13.9373 0 0
lowerback 15.6323 5.80228 0.468225
upperback -4.04045 8.07846 1.44993
thorax -13.4343 3.78799 -0.828806
lowerneck -2.48797 9.60358 2.1075
upperneck 7.71954 12.5553 1.93014
head 2.89915 6.33784 0.67714
lclavicle -6.93634e-14 -1.82882e-14 0
lhumerus 3.62877 10.5911 84.1105
lradius 94.6704 -0 0
lwrist -18.7323 0 0
lhand -39.7263 28.028 -2.14852e-06
lfingers 7.12502 -0 0
lthumb -12.7039 57.6222 -2.03063e-06
rclavicle -6.93634e-14 -1.82882e-14 0
rhumerus -57.9103 50.9881 -110.291
rradius 114.08 -0 0
rwrist -84.6824 0 0
rhand 4.85378 -26.872 9.25711e-05
rfingers 7.12502 -0 0
rthumb 30.2305 -54.4174 0.000109803
2755
root -5.58798 13.9455 -28.429 162.127 -65.4861 -161.26
lfemur -59.7786 43.1394 -6.5963
ltibia 68.2557 -0 0
lfoot -2.59506 -1.6462 0.000911997
ltoes -31.7242 0 0
rfemur -30.8269 -18.7391 21.5336
rtibia 82.1434 -0 0
rfoot -35.5066 -24.8201 0.00125639
rtoes -13.94 0 0
lowerback 15.6092 5.80438 0.45281
upperback -4.05589 8.07839 1.45043
thorax -13.4407 3.78929 -0.818358
lowerneck -2.48642 9.60553 2.10785
upperneck 7.73356 12.5578 1.92833
head 2.90381 6.33905 0.677106
lclavicle -6.93634e-14 -1.82882e-14 0
lhumerus 3.60893 10.6299 84.0889
lradius 94.6829 -0 0
lwrist -18.7433 0 0
lhand -39.7246 28.0233 -3.42845e-06
lfingers 7.12502 -0 0
lthumb -12.7023 57.6176 -3.24033e-06
rclavicle -6.93634e-14 -1.82882e-14 0
rhumerus -57.9279 50.9802 -110.306
rradius 114.077 -0 0
rwrist -84.6694 0 0
rhand 4.87517 -26.8565 0.000147718
rfingers 7.12502 -0 0
rthumb 30.2509 -54.3981 0.000175215
2756
root -5.59737 13.9351 -28.436 162.186 -65.4851 -161.316
lfemur -59.8527 43.2036 -6.59352
ltibia 68.4196 -0 0
lfoot -2.66678 -1.68339 0.00125708
ltoes -31.7928 0 0
rfemur -30.8343 -18.7505 21.5048
rtibia 82.2709 -0 0
rfoot -35.6207 -24.8523 0.00173178
rtoes -13.9431 0 0
lowerback 15.5827 5.80678 0.435208
upperback -4.07352 8.07831 1.45099
thorax -13.448 3.79077 -0.806428
lowerneck -2.48465 9.60776 2.10824
upperneck 7.74956 12.5607 1.92628
head 2.90914 6.34044 0.677067
lclavicle -6.93634e-14 -1.82882e-14 0
lhumerus 3.58626 10.6742 84.0641
lradius 94.6972 -0 0
lwrist -18.7559 0 0
lhand -39.7227 28.018 -4.7257e-06
lfingers 7.12502 -0 0
lthumb -12.7005 57.6123 -4.4664e-06
rclavicle -6.93634e-14 -1.82882e-14 0
rhumerus -57.948 50.9713 -110.324
rradius 114.074 -0 0
rwrist -84.6546 0 0
rhand 4.89959 -26.8388 0.000203611
rfingers 7.12502 -0 0
rthumb 30.2742 -54.3761 0.000241513
2757
root -5.60656 13.9247 -28.4428 162.251 -65.484 -161.378
lfemur -59.9346 43.2745 -6.59058
ltibia 68.6007 -0 0
lfoot -2.746 -1.72448 0.00158413
ltoes -31.8686 0 0
rfemur -30.8426 -18.7632 21.473
rtibia 82.4117 -0 0
rfoot -35.7467 -24.8879 0.00218235
rtoes -13.9465 0 0
lowerback 15.5536 5.80941 0.415765
upperback -4.09299 8.07823 1.45161
thorax -13.4561 3.7924 -0.793252
lowerneck -2.4827 9.61022 2.10868
upperneck 7.76723 12.5639 1.92401
head 2.91502 6.34197 0.677024
lclavicle -6.93634e-14 -1.82882e-14 0
lhumerus 3.5612 10.7232 84.0367
lradius 94.7129 -0 0
lwrist -18.7698 0 0
lhand -39.7207 28.0121 -5.95518e-06
lfingers 7.12502 -0 0
lthumb -12.6985 57.6065 -5.62842e-06
rclavicle -6.93634e-14 -1.82882e-14 0
rhumerus -57.9702 50.9613 -110.344
rradius 114.071 -0 0
rwrist -84.6383 0 0
rhand 4.92656 -26.8193 0.000256585
rfingers 7.12502 -0 0
rthumb 30.2999 -54.3518 0.000304346
2758
root -5.6155 13.9142 -28.4494 162.32 -65.4828 -161.445
lfemur -60.0229 43.3508 -6.58756
ltibia 68.7957 -0 0
lfoot -2.83131 -1.76872 0.00187282
ltoes -31.9502 0 0
rfemur -30.8514 -18.7769 21.4388
rtibia 82.5633 -0 0
rfoot -35.8823 -24.9263 0.00258006
rtoes -13.9501 0 0
lowerback 15.5221 5.81224 0.394824
upperback -4.11396 8.07814 1.45228
thorax -13.4649 3.79417 -0.779062
lowerneck -2.48059 9.61287 2.10916
upperneck 7.78627 12.5673 1.92157
head 2.92135 6.34362 0.676978
lclavicle -6.93634e-14 -1.82882e-14 0
lhumerus 3.53417 10.7759 84.0072
lradius 94.7299 -0 0
lwrist -18.7847 0 0
lhand -39.7185 28.0057 -7.04041e-06
lfingers 7.12502 -0 0
lthumb -12.6963 57.6003 -6.6541e-06
rclavicle -6.93634e-14 -1.82882e-14 0
rhumerus -57.9941 50.9506 -110.365
rradius 114.067 -0 0
rwrist -84.6207 0 0
rhand 4.95561 -26.7982 0.000303343
rfingers 7.12502 -0 0
rthumb 30.3276 -54.3256 0.000359808
2759
root -5.62417 13.9038 -28.4557 162.394 -65.4814 -161.516
lfemur -60.1161 43.4313 -6.58455
ltibia 69.0015 -0 0
lfoot -2.92131 -1.8154 0.00210596
ltoes -32.0364 0 0
rfemur -30.8608 -18.7913 21.4027
rtibia 82.7232 -0 0
rfoot -36.0255 -24.9667 0.00290124
rtoes -13.954 0 0
lowerback 15.4889 5.81521 0.372731
upperback -4.13608 8.07804 1.45299
thorax -13.4741 3.79603 -0.764093
lowerneck -2.47837 9.61566 2.10966
upperneck 7.80635 12.571 1.91899
head 2.92804 6.34536 0.676929
lclavicle -6.93634e-14 -1.82882e-14 0
lhumerus 3.50563 10.8315 83.976
lradius 94.7478 -0 0
lwrist -18.8005 0 0
lhand -39.7161 27.999 -7.91681e-06
lfingers 7.12502 -0 0
lthumb -12.6941 57.5937 -7.48242e-06
rclavicle -6.93634e-14 -1.82882e-14 0
rhumerus -58.0193 50.9393 -110.387
rradius 114.063 -0 0
rwrist -84.6021 0 0
rhand 4.98625 -26.776 0.000341104
rfingers 7.12502 -0 0
rthumb 30.3568 -54.298 0.000404599
2760
root -5.6325 13.8936 -28.4618 162.47 -65.48 -161.59
lfemur -60.2129 43.5148 -6.58162
ltibia 69.2147 -0 0
lfoot -3.0146 -1.86377 0.00227022
ltoes -32.1256 0 0
rfemur -30.8705 -18.8063 21.3652
rtibia 82.889 -0 0
rfoot -36.1738 -25.0086 0.00312753
rtoes -13.958 0 0
lowerback 15.4546 5.81828 0.34983
upperback -4.15901 8.07794 1.45372
thorax -13.4836 3.79797 -0.748578
lowerneck -2.47607 9.61856 2.11017
upperneck 7.82716 12.5747 1.91633
head 2.93496 6.34716 0.67688
lclavicle -6.93634e-14 -1.82882e-14 0
lhumerus 3.476 10.8891 83.9437
lradius 94.7664 -0 0
lwrist -18.8168 0 0
lhand -39.7137 27.992 -8.53429e-06
lfingers 7.12502 -0 0
lthumb -12.6917 57.5868 -8.06602e-06
rclavicle -6.93634e-14 -1.82882e-14 0
rhumerus -58.0455 50.9276 -110.41
rradius 114.059 -0 0
rwrist -84.5829 0 0
rhand 5.01801 -26.753 0.000367708
rfingers 7.12502 -0 0
rthumb 30.3871 -54.2694 0.000436156
